<svg width="674" height="582" viewBox="0 0 674 582" fill="none" xmlns="http://www.w3.org/2000/svg">
<path d="M420.76 548.81C420.76 548.81 352.848 470.004 273.23 492.024C236.609 506.974 215.053 517.52 203.232 519.838C191.527 521.924 163.945 524.126 147.141 512.769C177.968 540.93 206.593 542.669 227.685 538.728C248.777 534.672 269.869 517.52 275.316 513.116C280.879 508.828 300.928 484.955 339.867 500.368C368.028 513.579 403.839 552.403 409.865 559.356L420.759 548.81" fill="#FDC83F"/>
<path d="M272.77 490.52C272.654 490.52 241.248 503.732 241.248 503.732C222.821 511.613 210.653 516.712 202.888 518.218C199.295 518.913 167.078 524.36 148.072 511.381L146.102 513.814C146.102 513.93 146.218 514.046 146.218 514.046C171.366 536.876 198.832 545.684 228.037 540.237C242.06 537.571 258.284 528.996 276.131 514.509C276.362 514.393 278.449 512.539 278.449 512.539C285.75 505.933 305.103 488.318 339.29 501.877C366.524 514.625 401.408 551.826 408.594 560.402L409.752 561.677L422.964 548.929L421.921 547.77C421.226 546.958 352.503 468.501 272.771 490.52L272.77 490.52ZM203.583 521.347C211.579 519.84 223.864 514.625 242.406 506.629L273.812 493.533C347.982 473.02 412.412 541.975 418.562 548.697C416.94 550.32 411.609 555.419 409.87 557.041C400.947 546.843 367.454 511.496 340.452 498.98C304.41 484.61 284.013 503.152 276.249 510.221L274.395 511.96C256.78 526.099 241.019 534.559 227.343 537.108C202.427 541.859 178.785 535.137 156.766 518.334C176.352 525.171 200.341 521.926 203.586 521.347" fill="white"/>
<path d="M258.05 488.43C258.05 488.43 214.243 497.817 197.787 502.569C181.331 507.437 125.703 508.364 93.257 458.994C118.985 480.086 150.507 480.086 163.139 479.622C175.887 479.274 208.684 484.142 224.793 487.155C224.445 484.142 208.221 480.549 203.353 478C198.486 475.45 184.811 471.394 168.238 435.236C162.675 424.226 161.748 418.084 157.924 414.723C164.877 415.766 178.437 430.368 182.609 434.772C186.781 439.176 212.045 468.264 226.416 475.681C240.786 483.214 247.856 486.807 258.054 488.429" fill="#FDC83F"/>
<path d="M156.88 416C158.966 417.738 160.125 420.52 161.863 424.808L166.847 435.934C182.26 469.658 195.124 475.8 201.266 478.813L202.541 479.392L211.464 482.637C212.391 482.985 213.666 483.448 214.825 483.796C198.253 481.131 174.032 477.77 163.138 478.117C134.977 478.929 111.799 472.091 94.2988 457.72L91.8651 459.922C123.155 507.321 177.972 510.102 198.255 504.076C214.364 499.325 257.939 490.169 258.402 490.053L258.286 486.924C248.204 485.186 241.134 481.593 227.112 474.292C214.944 467.918 194.315 445.204 186.55 436.628L183.769 433.615L182.726 432.572C174.034 423.417 164.299 414.03 158.157 413.218L156.882 416L156.88 416ZM212.392 479.624L204.048 476.611L202.657 475.916C197.21 473.366 184.694 467.224 169.744 434.543C169.744 434.427 164.761 423.533 164.761 423.533C163.834 421.099 162.675 419.94 161.632 418.202C168.006 421.91 176.698 430.834 180.406 434.774L181.449 435.817L184.114 438.83C191.995 447.406 212.971 470.584 225.719 477.19C236.613 482.869 243.45 486.345 250.751 488.431C237.655 491.328 209.726 497.355 197.325 501.063C178.898 506.51 131.151 504.076 100.441 465.716C117.361 476.61 138.337 482.056 163.254 481.245C175.422 480.897 207.06 485.417 224.444 488.662L226.53 489.125L226.299 486.924C226.299 486.46 225.371 486.112 225.024 485.649L224.908 485.533C223.401 483.679 219.924 482.056 212.392 479.622" fill="white"/>
<path d="M177.16 470.82C177.16 470.82 155.141 464.794 138.8 462.476C122.344 460.274 64.978 445.788 42.611 378.455C65.21 404.762 70.309 406.385 83.52 412.99C96.847 419.596 136.945 442.426 150.852 454.942L154.908 457.26C154.908 457.26 156.299 455.521 150.157 450.306C144.246 444.975 123.966 426.548 120.837 385.292C118.287 367.097 114.231 350.525 112.956 348.323C122.111 353.538 132.889 374.63 135.091 380.541C137.293 386.568 152.127 428.172 154.097 433.155C155.951 438.023 168.004 464.445 177.159 470.819" fill="#FDC83F"/>
<path d="M111.56 349.02C112.603 350.875 116.659 366.983 119.209 385.526C120.715 404.88 127.089 432.114 149.109 451.468C149.225 451.468 149.225 451.468 149.225 451.584C133.927 438.952 97.5378 418.208 84.2108 411.602L82.1248 410.443C70.6518 404.765 64.8568 401.983 43.8808 377.414L41.0994 378.921C65.4364 452.28 131.146 463.173 138.563 464.101C154.672 466.187 176.459 472.445 176.691 472.445L178.082 469.664C169.622 463.637 157.801 438.49 155.483 432.579L136.593 380.081C134.507 374.634 123.613 352.615 113.763 346.936L111.561 349.022L111.56 349.02ZM156.178 458.19C156.526 457.843 156.642 457.379 156.642 456.8C156.642 455.293 155.599 452.859 151.195 449.151C130.103 430.377 123.845 404.07 122.454 385.179C120.715 372.663 118.166 360.494 116.196 353.425C123.844 361.074 131.725 376.139 133.58 381.123L152.586 433.737C153.86 437.098 163.364 457.958 172.287 467.925C164.87 466.071 150.615 462.478 138.911 460.971C132.189 460.044 74.1277 449.73 48.0527 386.917C63.8137 404.416 70.3037 408.241 80.6177 413.34L82.8196 414.383C96.6106 421.337 136.13 443.819 149.805 456.104C150.036 456.336 154.208 458.654 154.208 458.654L155.367 459.349L156.178 458.19" fill="white"/>
<path d="M115.85 415.89C115.85 415.89 88.268 399.781 73.086 387.96C57.904 376.023 15.257 344.965 19.66 289.801C26.2658 307.648 37.044 323.873 48.748 333.723C60.453 343.69 81.661 374.98 86.76 382.281C91.7433 389.582 95.22 391.552 95.22 391.552C95.22 391.552 96.8425 387.96 91.1639 381.702C86.9919 374.98 79.4589 359.219 83.5151 324.8C88.6143 292.814 90.4685 285.166 89.5414 280.182C93.9452 291.423 99.7394 315.644 101.941 353.541C103.216 374.981 105.65 391.553 108.431 398.854C111.329 406.039 115.848 415.89 115.848 415.89" fill="#FDC83F"/>
<path d="M88.036 280.53C88.1519 281.226 88.1519 282.037 88.1519 282.964C88.1519 286.557 87.2248 292.235 85.2546 304.288L82.0097 324.569C81.1985 331.406 80.7349 337.665 80.7349 343.575C80.7349 359.8 83.748 372.895 89.7743 382.514C91.7444 384.6 92.6716 386.222 93.251 387.613C91.8603 386.222 90.1219 384.368 88.0359 381.355L86.2976 378.921C79.3442 368.723 60.5696 341.72 49.7916 332.565C38.3186 322.83 27.6566 306.721 21.0506 289.222L18.0374 289.686C13.7494 343.691 53.3844 374.518 70.3044 387.845L72.0428 389.12C87.1088 400.941 114.691 417.166 114.922 417.281L117.24 415.311L109.938 398.275C107.157 390.858 104.723 374.17 103.449 353.425C100.783 307.532 93.2507 285.281 91.0487 279.603L88.0355 280.53L88.036 280.53ZM88.3837 304.751C89.6585 297.45 90.3538 292.814 90.8174 289.106C93.9465 300 98.3503 320.396 100.32 353.657C101.595 374.633 104.029 391.669 107.042 399.434C107.042 399.434 110.287 406.967 112.373 412.066C104.145 407.083 85.486 395.61 74.013 386.686L72.2747 385.295C56.6297 373.011 20.9347 345.197 20.9347 297.682V295.944C27.7722 311.705 37.0437 325.96 47.7057 334.999C58.2517 343.807 76.7937 370.693 83.7477 380.776L85.3702 383.21C90.5853 390.627 94.2938 392.829 94.4096 392.944L96.0321 393.872L96.6115 392.133C96.9592 391.67 98.4658 387.382 92.3235 380.544C84.6748 368.26 82.2415 349.485 85.1383 325.032L88.3833 304.751" fill="white"/>
<path d="M69.958 339.05C69.958 339.05 60.455 324.216 51.879 314.481C43.3032 304.978 5.40696 262.099 24.992 189.781C24.992 206.585 27.3098 216.088 29.0482 222.115C31.0183 228.026 49.7922 268.355 51.6472 279.249C53.5014 290.143 56.6305 310.655 61.0344 312.973C62.6568 311.93 60.8025 308.338 60.2231 304.977C59.5278 301.732 54.0808 273.687 70.5371 243.207C85.4871 216.436 88.2681 213.887 90.4701 204.615C91.1655 222.115 85.4868 256.766 80.9671 271.368C76.5633 285.854 64.6261 319.578 69.9571 339.048" fill="#FDC83F"/>
<path d="M50.72 315.64C59.0641 325.027 68.567 339.745 68.567 339.861L71.4643 338.586C66.8286 321.666 75.984 292.693 80.8515 277.048L82.4739 271.833C86.7619 257.926 92.7879 222.811 92.0929 204.501L88.9638 204.153C87.3413 210.527 85.603 213.772 79.4608 224.318L69.1468 242.513C59.412 260.476 57.2098 277.744 57.2098 289.796C57.2098 296.866 58.0211 301.733 58.4846 304.282C56.3986 297.213 54.5444 286.898 53.5013 281.336L53.1537 279.018C51.8788 271.37 43.0717 250.857 36.5817 235.907L30.6713 221.653C28.933 216.091 26.6151 206.587 26.6151 189.783L23.4861 189.32C10.6221 236.719 20.357 281.569 50.7201 315.64H50.72ZM53.0378 313.438C31.9458 289.912 21.1678 260.94 21.1678 229.533C21.1678 220.725 22.3267 211.802 23.9492 202.762C24.7605 212.149 26.267 218.407 27.5418 222.579L33.684 237.181C39.7104 251.088 48.866 272.296 50.025 279.481L50.3727 281.915C53.2699 298.256 55.9354 312.047 60.3392 314.364L61.1505 314.711L61.9617 314.248C62.8889 313.668 63.2365 312.625 63.2365 311.582C63.2365 310.307 62.8889 308.917 62.4254 307.526L61.7301 304.745C61.2665 302.659 60.3393 297.328 60.3393 289.679C60.3393 278.09 62.5412 261.402 72.0443 244.018L82.2423 225.939C85.1395 220.839 87.1097 217.479 88.5004 214.466C87.5732 233.24 82.9377 259.316 79.4609 270.905L77.8385 276.12C73.5506 289.679 66.9445 310.424 66.9445 327.46C66.9445 329.314 67.4081 330.936 67.6398 332.675C64.0472 327.46 58.4845 319.579 53.0378 313.437" fill="white"/>
<path d="M54.081 251.09C54.081 251.09 48.4024 228.028 41.449 209.601C34.4956 191.059 21.168 148.063 55.703 103.211C48.4019 121.058 51.2991 132.647 51.2991 134.617C51.2991 136.587 55.5871 176.222 55.703 186.072C55.8189 198.704 53.5011 220.491 53.5011 220.491C53.5011 220.491 54.3123 223.156 56.0507 220.491C57.0937 218.868 59.4115 190.707 76.3317 173.903C91.9767 158.258 104.725 146.437 108.202 139.947C108.202 151.42 101.596 168.34 96.1487 177.495C90.8177 186.766 68.6827 217.13 63.5837 227.328C58.6004 237.642 54.0806 249.811 54.0806 251.086" fill="#FDC83F"/>
<path d="M39.942 210.18C46.7796 228.259 52.458 251.321 52.574 251.553L55.7031 251.206C55.819 249.931 59.9911 238.458 65.0903 228.144C67.9876 222.117 76.9113 209.022 84.9073 197.433L97.5393 178.31C103.45 168.228 109.707 151.308 109.707 139.95L106.81 139.139C104.029 144.354 94.989 153.278 83.4 164.635L75.1718 172.748C61.1488 186.655 56.8608 208.442 55.2388 216.555C55.2388 216.555 54.891 218.409 54.7751 219.22C55.3547 216.323 57.2088 186.075 57.2088 186.075L53.9638 145.397L52.8049 133.113C52.5731 131.722 52.3414 129.521 52.3414 126.623C52.3414 121.292 53.2685 113.527 57.0929 103.793L54.4274 102.171C29.9744 134.041 25.1074 170.315 39.9414 210.181L39.942 210.18ZM42.9552 209.021C37.5084 194.419 34.727 180.28 34.727 166.721C34.727 147.715 40.4056 129.868 51.068 113.064C49.7931 118.395 49.2137 123.146 49.2137 126.623C49.2137 129.636 49.4455 131.954 49.5614 133.461C49.7931 134.619 50.7203 145.745 50.7203 145.745L54.0811 186.075L51.8792 220.263C52.111 221.306 52.6904 223.044 54.3129 223.16C55.4718 223.392 56.5148 222.696 57.3261 221.306L58.3691 217.134C59.9916 209.253 64.0477 188.277 77.3751 175.066L85.7193 166.838C95.2223 157.45 101.712 150.729 105.884 145.282C104.378 156.176 99.0468 169.503 94.7583 176.804L82.2423 195.694C74.2458 207.283 65.2063 220.494 62.1933 226.636C59.1801 232.779 56.1669 240.195 54.3127 245.41C52.1108 237.53 47.9387 222.116 42.9557 209.021" fill="white"/>
<path d="M64.047 172.52C64.047 172.52 66.5966 166.146 64.2788 140.418C61.8451 114.69 60.8021 79.5761 100.669 55.9341C90.7022 72.6221 89.0798 75.5201 86.0668 89.1951C83.0536 102.754 79.6928 124.542 74.2458 136.826C72.0439 142.852 70.6532 147.604 71.6962 148.183C72.6234 148.763 73.0869 147.72 73.7823 145.634C74.7094 143.547 82.8217 125.121 99.2783 113.416C115.734 101.711 130.568 90.0056 136.131 78.4166C133.698 99.8566 125.585 107.505 117.473 118.283C108.666 129.988 77.0273 154.441 71.6963 162.437C66.2495 170.317 64.0475 172.519 64.0475 172.519" fill="#FDC83F"/>
<path d="M62.656 140.53C64.9738 165.215 62.5401 171.82 62.5401 171.82L65.0898 173.674L72.9704 163.244C75.4041 159.652 83.9804 152.118 92.9034 144.122C103.333 134.967 114.111 125.464 118.747 119.206L121.992 115.034C128.946 106.111 135.551 97.6501 137.753 78.6441L134.74 77.717C129.177 89.19 113.996 101.011 98.3501 112.136C86.4131 120.596 78.8801 132.417 75.0561 139.486C75.2878 138.675 75.4037 138.443 75.7514 137.4C79.9234 128.129 82.7048 113.527 85.3703 100.779L87.5722 89.538C90.5854 76.326 91.9761 73.661 102.058 56.741L99.8563 54.5391C56.9763 80.0351 60.6853 119.438 62.6553 140.53L62.656 140.53ZM66.828 159.188C66.828 154.436 66.5963 148.294 65.785 140.298C65.3214 135.315 64.8579 129.288 64.8579 122.683C64.8579 103.909 70.4206 80.615 94.9899 62.536C88.8476 72.966 86.9934 77.486 84.5599 88.843L82.1263 100.084C79.6925 112.716 76.7953 127.086 72.7391 136.242C70.5372 142.152 69.7259 145.397 69.7259 147.252C69.7259 148.527 70.1895 149.106 70.8849 149.57L71.4643 149.917L72.855 149.802C74.1298 149.338 74.7092 147.947 75.2886 146.093C76.0998 144.239 84.3281 126.044 100.205 114.687C113.301 105.416 125.701 95.5651 133.118 85.8301C130.452 98.4621 125.353 105.531 119.443 113.18L116.198 117.236C111.678 123.262 100.669 133.113 90.8177 141.805C81.3147 150.265 72.9707 157.566 70.3047 161.506C70.3047 161.506 68.4505 164.056 66.5963 166.49C66.7121 164.519 66.828 162.317 66.828 159.188" fill="white"/>
<path d="M93.8311 104.26C93.8311 104.26 99.0462 77.0259 109.476 60.9169C119.906 44.8079 141.578 30.5539 164.408 23.4839C156.412 30.2056 151.544 36.2319 148.763 41.0989C145.982 45.8505 128.714 72.8529 120.833 81.4289C112.721 90.0048 99.7411 97.7699 93.8311 104.259" fill="#FDC83F"/>
<path d="M108.09 59.9872C97.66 76.2122 92.561 102.866 92.329 103.909L95.1104 105.3L106.699 95.4492L121.881 82.4692C130.11 73.6615 147.493 46.5432 150.158 41.9072C153.403 36.2286 158.502 30.4342 165.456 24.6392L163.95 21.9736C139.845 29.3906 118.521 43.9926 108.091 59.9856L108.09 59.9872ZM110.871 61.7255C119.679 48.0505 137.294 35.6505 157.459 27.8855C153.403 32.0576 149.811 36.2296 147.377 40.2855C144.712 44.8053 127.56 71.6915 119.563 80.3835C119.563 80.3835 99.9784 96.9555 96.3854 99.9685C98.3555 91.6244 103.223 73.5455 110.871 61.7245" fill="white"/>
<path d="M258.51 550.9C258.51 550.9 324.452 470.356 404.53 490.405C441.615 504.428 463.286 514.394 475.223 516.249C487.044 518.219 514.51 519.726 531.082 507.789C500.95 536.762 472.326 539.311 451.233 535.835C430.025 532.358 408.585 515.786 403.023 511.498C397.46 507.21 376.6 484.032 338.24 500.373C310.195 514.28 275.427 553.914 269.633 561.099L258.507 550.901" fill="#FDC83F"/>
<path d="M257.24 549.86L256.313 551.019L269.872 563.419L270.915 562.028C277.984 553.336 312.056 515.208 338.943 501.765C372.667 487.395 392.484 504.547 399.901 511.037L401.987 512.775C420.414 526.798 436.754 535.142 451.009 537.46C480.213 542.096 507.564 532.592 532.016 509.183C532.132 509.067 532.132 509.067 532.132 508.951L530.162 506.517C511.388 519.96 479.054 515.325 475.462 514.745C467.697 513.471 455.645 508.719 437.334 501.418L405.116 488.902C324.804 468.737 257.936 549.049 257.236 549.86L257.24 549.86ZM404.19 491.915L436.176 504.431C454.718 511.732 466.887 516.599 474.999 517.874C478.012 518.338 500.843 521.467 519.849 514.977C498.757 531.433 475.927 538.155 451.474 534.215C437.915 532.013 421.922 524.017 404.191 510.342C403.959 510.226 401.989 508.603 401.989 508.603C394.108 501.766 373.248 483.687 337.554 498.985C311.015 512.081 278.218 548.238 269.526 558.784C267.788 557.277 262.341 552.178 260.718 550.787C266.629 543.834 329.325 473.256 404.188 491.915" fill="white"/>
<path d="M419.72 486.46C419.72 486.46 463.758 494.573 480.215 498.976C496.787 503.38 552.531 502.916 583.825 452.736C558.561 474.523 526.923 475.335 514.291 475.219C501.659 475.103 468.862 480.782 452.985 484.259C453.217 481.13 469.325 477.189 474.193 474.524C478.944 471.858 492.504 467.455 508.149 430.833C513.596 419.707 514.291 413.449 518.116 410.089C511.162 411.364 497.951 426.314 493.895 430.717C489.722 435.352 465.154 465.021 451.015 472.785C436.876 480.781 429.807 484.374 419.725 486.46" fill="#FDC83F"/>
<path d="M493.88 428.4L492.721 429.675L489.592 433.152C482.059 441.844 462.126 464.906 450.305 471.396C435.935 479.508 429.097 482.869 419.362 484.839V487.968C419.71 488.084 463.516 496.196 479.857 500.484C500.254 506.047 555.07 501.875 585.087 453.548L582.769 451.578C565.501 466.412 542.439 473.829 514.394 473.597C503.384 473.481 479.395 477.421 462.707 480.666C463.866 480.202 465.141 479.739 466.184 479.391L474.876 475.914L476.267 475.219C481.829 472.438 494.924 465.716 509.642 431.528L514.394 420.287C516.016 415.999 517.175 413.102 519.03 411.363L517.755 408.582C511.729 409.625 502.341 419.128 493.882 428.399L493.88 428.4ZM451.812 474.293C464.096 467.34 483.682 444.857 492.026 435.238L495.039 431.877L496.314 430.487C499.907 426.547 508.251 417.623 514.393 413.683C513.466 415.421 512.307 416.696 511.38 419.13L506.744 430.14C492.49 463.401 480.089 469.659 474.758 472.44L473.367 473.135L465.139 476.38C457.606 479.045 454.245 480.784 452.739 482.638L452.623 482.754C452.276 483.217 451.464 483.681 451.348 484.145L451.233 486.346L453.319 485.767C468.153 482.522 501.298 476.728 514.277 476.843C539.193 476.959 560.054 471.049 576.742 459.575C546.842 498.862 499.211 502.455 480.669 497.471C468.269 494.111 440.107 488.664 426.896 486.23C433.965 483.913 440.687 480.436 451.812 474.293L451.812 474.293Z" fill="white"/>
<path d="M500.26 466.76C500.26 466.76 521.931 460.038 538.272 457.489C554.728 454.823 611.747 438.831 632.375 370.919C610.472 397.806 605.489 399.544 592.393 406.613C579.297 413.45 539.663 437.208 525.988 450.072L521.932 452.505C521.932 452.505 520.773 450.883 526.567 445.552C532.478 440.105 552.295 421.099 554.497 379.726C556.583 361.531 560.292 344.959 561.567 342.525C552.527 348.088 542.213 369.527 540.127 375.438C538.041 381.464 524.134 423.417 522.396 428.4C520.541 433.383 509.184 460.038 500.261 466.76" fill="#FDC83F"/>
<path d="M538.62 374.98L520.889 427.942C518.571 434.084 507.446 459.348 499.217 465.49L500.608 468.271C500.839 468.271 522.511 461.55 538.62 459C545.921 457.841 611.399 445.325 633.998 371.387L631.216 369.88C610.588 395.144 605.257 397.926 593.668 404.068L591.582 405.111C578.602 412.065 543.256 433.388 527.842 446.484C549.282 426.435 555.076 399.201 556.119 379.847C558.205 361.189 561.798 345.196 562.957 343.341L560.639 341.14C550.904 347.166 540.59 369.533 538.62 374.98V374.98ZM523.902 428.985L541.633 376.023C543.371 370.924 550.904 355.742 558.321 347.862C556.583 354.931 554.381 366.868 552.874 379.5C551.368 406.966 542.212 428.754 525.524 444.399C521.468 448.107 520.309 450.541 520.309 452.048C520.309 452.627 520.425 453.207 520.773 453.554L521.584 454.597L526.799 451.468C540.358 438.836 579.413 415.31 593.088 408.009L595.058 406.966C605.372 401.519 611.746 397.579 627.16 379.5C602.707 443.008 544.878 454.713 538.04 455.872C526.451 457.727 512.312 461.551 504.895 463.753C513.587 453.671 522.394 433.158 523.901 428.986" fill="white"/>
<path d="M560.17 410.32C560.17 410.32 587.288 393.4 602.238 381.116C617.072 368.948 659.024 336.846 653.346 281.798C647.088 299.761 636.774 316.218 625.3 326.416C613.827 336.614 593.43 368.484 588.563 375.901C583.58 383.318 580.219 385.404 580.219 385.404C580.219 385.404 578.481 381.812 584.043 375.322C587.983 368.717 595.284 352.608 590.301 318.42C584.507 286.434 582.537 278.901 583.232 274.034C579.176 285.275 573.961 309.496 572.686 347.509C571.991 369.065 569.789 385.637 567.123 392.938C564.458 400.355 560.17 410.322 560.17 410.322" fill="#FDC83F"/>
<path d="M571.07 347.51C570.375 368.254 568.289 385.058 565.623 392.36L558.786 409.744L561.103 411.714C561.335 411.483 588.453 394.562 603.287 382.394L605.026 381.004C621.598 367.329 660.538 335.575 654.975 281.57L651.846 281.222C645.703 299.069 635.621 315.178 624.264 325.26C613.718 334.647 595.639 362.113 588.802 372.543L587.179 375.093C585.093 378.106 583.471 379.96 582.196 381.351C582.659 380.076 583.471 378.453 585.209 376.367C590.772 367.096 593.553 354.695 593.553 339.63C593.553 332.909 593.09 325.723 591.931 318.19C591.931 318.075 588.106 297.562 588.106 297.562C585.789 285.278 584.745 279.715 584.745 276.238C584.745 275.543 584.745 274.848 584.861 274.268L581.848 273.457C579.646 279.252 572.693 301.734 571.07 347.511L571.07 347.51ZM568.636 393.518C571.418 385.869 573.62 368.718 574.315 347.625C575.474 314.364 579.414 293.968 582.311 282.958C582.775 286.551 583.586 291.186 584.977 298.14L588.801 318.653C589.844 326.186 590.424 333.255 590.424 339.745C590.424 354.115 587.758 365.936 582.659 374.512C579.182 378.568 578.371 381.813 578.371 383.783C578.371 385.058 578.719 385.869 578.835 385.985L579.53 387.724L581.037 386.797C581.268 386.681 584.861 384.363 589.844 376.83L591.583 374.28C598.304 363.966 616.152 336.732 626.466 327.692C636.78 318.421 645.704 303.934 652.078 288.057C652.193 289.332 652.309 290.723 652.309 291.998C652.309 338.122 618.121 366.168 602.94 378.568L601.202 379.958C589.96 389.23 571.65 401.166 563.538 406.381C565.508 401.398 568.637 393.517 568.637 393.517" fill="white"/>
<path d="M604.21 332.21C604.21 332.21 613.365 317.144 621.71 307.294C630.054 297.559 667.023 253.637 645.699 181.904C646.047 198.708 644.076 208.327 642.338 214.353C640.6 220.263 622.868 261.057 621.246 271.951C619.508 282.961 616.842 303.473 612.438 305.907C610.932 304.98 612.786 301.271 613.25 298.026C613.829 294.665 618.581 266.388 601.429 236.488C585.9 210.181 583.002 207.515 580.685 198.36C580.337 215.86 586.943 250.395 591.579 264.765C596.446 279.251 609.194 312.628 604.211 332.213" fill="#FDC83F"/>
<path d="M644.08 181.9V186.188C644.08 197.198 643.037 206.237 640.835 213.886L635.041 228.836C629.014 243.786 620.786 264.298 619.627 271.716L619.163 274.845C618.352 280.524 616.845 290.143 614.991 296.864C615.339 294.546 615.918 290.606 615.918 284.811C615.918 272.758 613.6 254.564 602.706 235.673L591.928 217.71C585.67 207.396 583.816 204.151 582.193 198.009L578.948 198.357C578.716 216.436 585.554 251.435 590.073 265.342L591.927 270.673C597.142 286.086 606.994 314.827 602.706 331.863L605.603 333.022C605.719 332.906 614.758 317.956 622.987 308.337C652.539 273.57 661.115 228.489 647.208 181.437L644.079 181.9L644.08 181.9ZM613.253 307.29C617.657 304.857 619.975 291.297 622.292 275.304L622.756 272.291C623.915 265.106 632.375 244.014 637.938 229.991L643.848 214.809C645.007 210.753 646.166 203.683 646.746 194.181C649.064 204.495 650.454 214.694 650.454 224.66C650.454 254.792 640.372 282.953 620.554 306.247C615.339 312.389 610.008 320.27 606.531 325.601C606.647 324.326 606.995 323.283 606.995 322.008C606.995 304.856 599.694 283.416 594.942 269.626L593.088 264.295C589.379 252.706 584.28 226.978 582.89 208.32C584.396 211.218 586.25 214.463 589.264 219.33L600.042 237.293C610.472 255.604 612.674 273.103 612.674 284.692C612.674 291.182 611.978 295.933 611.747 297.672C611.631 297.672 610.935 300.686 610.935 300.686C610.703 302.076 610.24 303.351 610.24 304.51C610.24 305.669 610.588 306.712 611.631 307.291L612.442 307.755L613.253 307.291" fill="white"/>
<path d="M618 244.02C618 244.02 623.215 220.726 629.705 202.068C636.195 183.41 648.479 140.182 613.017 96.1479C620.666 113.763 618.116 125.468 618.232 127.438C618.232 129.408 614.755 169.159 614.987 179.009C615.103 191.641 618 213.313 618 213.313C618 213.313 617.189 215.978 615.451 213.429C614.292 211.69 611.394 183.645 594.127 167.305C578.018 152.123 565.039 140.65 561.446 134.16C561.677 145.749 568.747 162.321 574.31 171.477C579.872 180.516 602.703 210.416 608.034 220.499C613.249 230.581 618 242.634 618 244.025" fill="#FDC83F"/>
<path d="M611.51 96.8401C616.146 107.154 616.957 115.382 616.957 120.713C616.957 123.031 616.841 124.769 616.725 125.928L615.798 137.517L613.364 179.006C613.364 179.006 615.219 200.098 616.03 209.253C614.06 200.33 609.424 179.585 595.17 166.258C595.17 166.142 586.362 157.798 586.362 157.798C574.773 146.904 565.618 138.328 562.836 133.345L559.823 134.156C560.055 145.513 566.776 162.202 572.919 172.284L586.131 191.29C594.359 202.531 603.515 215.395 606.528 221.19C611.975 231.504 616.263 242.862 616.379 244.136L619.623 244.368C619.623 244.136 624.839 220.958 631.212 202.532C645.235 162.666 639.556 126.508 614.176 95.1021L611.511 96.8405L611.51 96.8401ZM617.189 216.09C618.811 215.858 619.391 214.12 619.506 213.772C619.506 212.498 616.493 179.005 616.493 179.005L619.043 137.864L619.738 127.434C619.854 125.696 620.086 123.494 620.086 120.829C620.086 117.004 619.275 111.673 617.768 105.879C629.357 123.031 635.499 141.573 635.499 161.506C635.499 174.37 633.065 187.697 628.198 201.488C623.562 214.815 619.622 230.345 617.768 238.225C615.798 233.125 612.669 225.825 609.424 219.683C606.179 213.656 596.908 200.793 588.796 189.436L575.7 170.546C570.601 162.317 565.386 149.686 563.647 139.372C567.935 144.587 574.541 151.077 584.16 160.232L593.083 168.46C606.642 181.324 611.046 201.489 612.9 210.065L614.059 214.237C614.987 215.628 616.03 216.207 617.188 216.091" fill="white"/>
<path d="M606.3 165.56C606.3 165.56 603.634 159.302 605.373 133.574C607.111 107.73 607.343 72.6159 567.013 49.9009C577.327 66.4729 578.95 69.3709 582.311 82.9299C585.672 96.3729 589.612 118.045 595.291 130.213C597.609 136.239 599.231 140.875 598.188 141.455C597.145 142.15 596.682 140.991 595.87 139.021C595.059 136.935 586.367 118.74 569.795 107.499C552.991 96.1421 537.925 84.7851 532.131 73.4271C534.913 94.7511 543.257 102.168 551.601 112.714C560.641 124.187 592.858 147.829 598.421 155.594C604.1 163.475 606.302 165.561 606.302 165.561" fill="#FDC83F"/>
<path d="M565.62 50.8321C576.05 67.5201 577.557 70.1861 580.802 83.2811L583.236 93.9431C586.133 106.807 589.378 121.409 593.782 130.912C594.014 131.492 594.477 132.65 594.825 133.578C591.116 126.856 583.352 114.688 570.604 106.112C554.727 95.4497 539.198 83.8607 533.519 72.7357L530.506 73.6628C533.055 92.5528 539.777 100.781 547.078 109.589L550.323 113.645C555.19 119.903 566.316 129.174 576.862 138.214C586.017 145.863 594.593 153.048 597.143 156.641L605.255 166.723L607.805 164.869C607.689 164.869 605.255 158.379 606.993 133.694C608.384 112.37 611.049 72.8507 567.822 48.5137L565.62 50.8315L565.62 50.8321ZM598.996 142.733C599.691 142.385 600.039 141.69 600.039 140.647C600.039 138.793 598.996 135.548 596.794 129.637C592.506 120.482 589.145 105.3 586.364 93.2471L583.815 82.4691C581.033 71.1121 579.063 66.7081 572.805 56.2781C598.301 73.8931 604.326 96.8401 604.326 119.206C604.326 124.073 604.095 128.825 603.863 133.46C603.399 139.95 603.284 145.165 603.284 149.337C603.284 153.973 603.399 157.102 603.747 159.651C601.777 157.217 599.807 154.784 599.807 154.784C597.025 150.959 588.681 143.89 578.947 135.778C568.865 127.318 557.507 117.699 552.756 111.789L549.511 107.617C543.484 100.2 538.269 93.3627 535.257 80.8457C542.326 89.7693 553.799 98.6927 568.865 108.776C586.017 120.481 594.361 139.487 594.477 139.603C595.172 141.457 595.636 142.732 596.911 143.079L597.606 143.427L598.997 142.732" fill="white"/>
<path d="M574.89 98.1149C574.89 98.1149 569.095 71.1129 558.202 55.2349C547.54 39.3579 525.521 25.6829 502.575 19.1929C510.687 25.6828 515.671 31.5929 518.568 36.3449C521.465 41.0964 539.428 67.6349 547.541 75.9799C555.769 84.4399 568.981 91.7409 574.891 98.1149" fill="#FDC83F"/>
<path d="M501.53 20.4682C510.338 27.3058 514.857 33.3322 517.175 37.1562C519.956 41.7918 538.035 68.5622 546.495 77.1382L562.024 89.7702L573.845 99.1572L576.51 97.7665C576.279 96.6076 570.484 70.3005 559.591 54.3075C548.813 38.5465 527.141 24.5235 503.036 17.6865L501.53 20.4679L501.53 20.4682ZM563.879 87.2212L548.697 74.8212C540.585 66.5929 522.622 39.8222 519.956 35.5342C517.522 31.594 513.814 27.5377 509.526 23.3662C529.923 30.6673 547.77 42.6042 556.925 56.1632C564.806 67.7522 570.137 85.5992 572.223 93.9432C568.746 91.0459 563.879 87.2215 563.879 87.2215" fill="white"/>
</svg>
