<?xml version="1.0" encoding="iso-8859-1"?>
<!-- Generator: Adobe Illustrator 21.0.0, SVG Export Plug-In . SVG Version: 6.00 Build 0)  -->
<svg xmlns="http://www.w3.org/2000/svg" xmlns:xlink="http://www.w3.org/1999/xlink" version="1.1" id="Capa_1" x="0px" y="0px" viewBox="0 0 511.808 511.808" style="enable-background:new 0 0 511.808 511.808;" xml:space="preserve" width="512" height="512">
<g>
	<path d="M47.518,131.445c0.302,0.365,0.649,1.436,0.631,1.831l-10.47,60.989c-1.492,8.695,6.878,14.494,14.46,10.51l54.755-28.765   c0.443-0.175,1.574-0.174,1.947-0.034l54.814,28.797c7.572,3.979,15.929-1.949,14.461-10.51l-10.46-60.91   c-0.029-0.474,0.319-1.544,0.567-1.854l44.342-43.194c6.129-5.968,3.079-15.755-5.521-17.003l-61.211-8.883   c-0.46-0.119-1.372-0.781-1.591-1.114L116.841,5.816c-3.786-7.666-14.03-7.788-17.877-0.001L71.59,61.239   c-0.255,0.401-1.168,1.063-1.552,1.168L8.752,71.304c-8.464,1.228-11.749,10.94-5.522,17.002L47.518,131.445z M72.192,77.252   c5.128-0.745,10.516-4.657,12.81-9.302l22.9-46.359l22.892,46.358c2.294,4.646,7.682,8.558,12.81,9.302l51.187,7.431   l-37.032,36.074c-3.713,3.617-5.771,9.949-4.895,15.058l8.745,50.941l-45.791-24.057c-4.586-2.409-11.242-2.409-15.828,0   l-45.802,24.059l8.745-50.943c0.877-5.109-1.183-11.442-4.895-15.057L21.007,84.683L72.192,77.252z"/>
	<path d="M499.308,239.714h-90.152c-6.893,0-12.5,5.607-12.5,12.5c0.444,1.652,0,3.957,0,5.678   c-47.381-3.895-81.027-37.9-83.497-85.211c-1.432-27.43,13.258-95.973-31.264-95.973c-28.566,0-41.828,23.557-47.923,43.319   c-5.068,16.435-7.639,37.517-7.639,62.659c0,9.673,15,9.673,15,0c0-23.643,2.346-43.237,6.973-58.239   c6.794-22.03,17.781-32.74,33.589-32.74c18.281,0,16.626,24.137,16.603,36.791c-0.046,24.22-2.827,49.019,3.872,72.68   c11.942,42.182,51.568,68.777,94.261,71.769v180.1c-8.661,8.693-47.55,43.74-111.271,43.74H180.562   c11.054-14.514,9.923-35.446-2.575-48.717c23.057-9.96,30.13-40.363,13.617-59.405c35.334-11.735,32.972-64.197-3.309-72.649   c10.771-13.341,11.071-32.818,0.702-46.477h37.266c0.19,11.903,1.749,35.645,10.098,60.433   c15.77,46.819,48.135,74.399,93.596,79.761c9.604,1.13,11.366-13.764,1.758-14.896c-54.777-6.461-82.329-53.106-88.859-104.128   c-3.109-24.29-1.521-49.522-1.521-73.943c0-9.673-15-9.673-15,0v37.772l-165.91,0.005c-30.849,0-48.938,36.73-29.712,61.121   c-33.314,6.17-41.727,51.625-12.818,69.364c-23.768,21.048-11.474,61.509,19.912,65.773c-18.984,24.414-0.892,60.931,29.851,60.931   l217.703,0.055c55.151,0,92.806-23.472,111.297-38.538v14.698c0,6.893,5.607,12.5,12.5,12.5h31.461c9.673,0,9.673-15,0-15h-28.961   V254.714h85.152v230.733h-23.092c-9.673,0-9.673,15,0,15h25.592c6.893,0,12.5-5.607,12.5-12.5V252.214   C511.808,245.321,506.201,239.714,499.308,239.714z M60.424,269.545h98.441c12.577,0,22.809,10.223,22.809,22.788   c0,11.878-9.145,21.657-20.771,22.69H58.385c-11.629-1.034-20.778-10.813-20.778-22.69   C37.607,279.767,47.842,269.545,60.424,269.545z M37.613,375.591c-12.574,0-22.805-10.222-22.805-22.786   c0-12.562,10.23-22.782,22.805-22.782h142.101c12.574,0,22.805,10.22,22.805,22.782c0,12.564-10.23,22.786-22.805,22.786H37.613z    M20.117,413.378c0-12.527,10.076-22.723,22.483-22.786h120.547c12.527,0.063,22.699,10.259,22.699,22.786   c0,12.561-10.234,22.78-22.814,22.78H42.922C30.347,436.158,20.117,425.939,20.117,413.378z M44.855,473.944   c0-12.564,10.229-22.786,22.801-22.786h82.818c12.573,0,22.803,10.222,22.803,22.786c0,12.566-10.229,22.789-22.803,22.789H67.656   C55.084,496.733,44.855,486.51,44.855,473.944z"/>
	<path d="M480.235,299.47c0-14.337-11.664-26.001-26.001-26.001c-14.336,0-25.999,11.664-25.999,26.001   c0,14.336,11.663,25.999,25.999,25.999C468.571,325.469,480.235,313.806,480.235,299.47z M454.234,310.469   c-6.064,0-10.999-4.934-10.999-10.999c0-6.066,4.935-11.001,10.999-11.001c6.066,0,11.001,4.935,11.001,11.001   C465.235,305.535,460.3,310.469,454.234,310.469z"/>
</g>















</svg>
